<svg id="Capa_1" data-name="Capa 1" xmlns="http://www.w3.org/2000/svg" viewBox="0 0 822.68 822.68"><defs><style>.cls-1{fill:#1d1d1b;}.cls-2{fill:#fff;}</style></defs><g id="Logo"><circle id="Internal_background_filler" data-name="Internal background filler" class="cls-1" cx="411.34" cy="411.34" r="341.45"/><g id="External_circle" data-name="External circle"><path id="Shape" class="cls-2" d="M512,100.66c-227.18,0-411.34,184.16-411.34,411.34S284.82,923.34,512,923.34,923.34,739.18,923.34,512,739.18,100.66,512,100.66Zm0,752.75c-188.56,0-341.41-152.85-341.41-341.41S323.44,170.59,512,170.59,853.41,323.44,853.41,512,700.56,853.41,512,853.41Z" transform="translate(-100.66 -100.66)"/></g></g><rect id="Right" class="cls-2" x="535.55" y="210.32" width="68.84" height="402.04" rx="34.42"/><rect id="Dot" class="cls-2" x="376.92" y="371.15" width="68.84" height="68.84" rx="34.42"/><rect id="Left" class="cls-2" x="218.3" y="210.32" width="68.84" height="402.04" rx="34.42"/></svg>