<?xml version="1.0" standalone="no"?>
<!DOCTYPE svg PUBLIC "-//W3C//DTD SVG 20010904//EN"
 "http://www.w3.org/TR/2001/REC-SVG-20010904/DTD/svg10.dtd">
<svg version="1.0" xmlns="http://www.w3.org/2000/svg"
 width="700.000000pt" height="700.000000pt" viewBox="0 0 700.000000 700.000000"
 preserveAspectRatio="xMidYMid meet">
<metadata>
Created by potrace 1.14, written by Peter Selinger 2001-2017
</metadata>
<g transform="translate(0.000000,700.000000) scale(0.100000,-0.100000)"
fill="#000000" stroke="none">
<path d="M3290 6400 c-704 -55 -1348 -350 -1844 -846 -427 -428 -711 -974
-810 -1561 -105 -621 -12 -1242 268 -1798 303 -599 803 -1077 1417 -1351 418
-187 902 -275 1352 -244 411 27 754 118 1112 295 1221 602 1861 1972 1539
3295 -288 1182 -1296 2066 -2509 2200 -137 15 -397 20 -525 10z m-1020 -1221
c58 -26 105 -71 138 -134 l27 -50 0 -1495 0 -1495 -27 -50 c-113 -213 -404
-213 -516 -1 l-27 51 0 1495 0 1495 27 51 c74 141 233 197 378 133z m2696 2
c58 -26 111 -77 142 -135 l27 -51 0 -1495 0 -1495 -27 -51 c-52 -99 -148 -158
-258 -158 -113 0 -204 56 -258 159 l-27 50 0 1495 0 1495 24 45 c75 145 234
204 377 141z m-1338 -1375 c126 -64 187 -205 147 -341 -23 -80 -107 -166 -185
-189 -115 -34 -206 -12 -291 73 -85 85 -108 179 -72 290 28 88 114 167 208
192 49 13 141 1 193 -25z"/>
</g>
</svg>
